<svg xmlns="http://www.w3.org/2000/svg" width="1280" height="168" viewBox="0 0 1280 168" role="img" aria-label="Citadel — DFIR platform — from acquisition to a reported case">
  <defs>
    <linearGradient id="rail" x1="0" y1="0" x2="0" y2="1">
      <stop offset="0" stop-color="#0b64d6"/><stop offset="1" stop-color="#0b64d6" stop-opacity="0.55"/>
    </linearGradient>
    <linearGradient id="tile" x1="0" y1="0" x2="1" y2="1">
      <stop offset="0" stop-color="#0b64d6"/><stop offset="1" stop-color="#0b64d6" stop-opacity="0.82"/>
    </linearGradient>
  </defs>
  <rect width="1280" height="168" fill="#ffffff"/>
  <circle cx="1210" cy="84" r="150" fill="#0b64d6" opacity="0.05"/>
  <circle cx="1130" cy="208" r="120" fill="#0b64d6" opacity="0.045"/>
  <rect x="52" y="58" width="52" height="52" rx="13" fill="url(#tile)"/>
  <path d="M65.0 95.0 V79.0 h5 v-5 h5 v5 h6 v-5 h5 v5 h5 V95.0 Z" stroke="#fff" stroke-width="2.4" fill="none" stroke-linecap="round" stroke-linejoin="round"/>
  <text x="130" y="72" font-family="-apple-system,Segoe UI,Roboto,Helvetica,Arial,sans-serif" font-size="31" font-weight="650" letter-spacing="-0.5" fill="#101318">Citadel</text>
  <text x="130" y="100" font-family="-apple-system,Segoe UI,Roboto,Helvetica,Arial,sans-serif" font-size="15.5" fill="#4b5560">DFIR platform — from acquisition to a reported case</text>
  <text x="130" y="123" font-family="ui-monospace,SFMono-Regular,Menlo,monospace" font-size="12.5" fill="#94a0ad">Python</text><circle cx="184" cy="119" r="1.6" fill="#0b64d6"/><text x="197" y="123" font-family="ui-monospace,SFMono-Regular,Menlo,monospace" font-size="12.5" fill="#94a0ad">React</text><circle cx="244" cy="119" r="1.6" fill="#0b64d6"/><text x="257" y="123" font-family="ui-monospace,SFMono-Regular,Menlo,monospace" font-size="12.5" fill="#94a0ad">Elasticsearch</text><circle cx="367" cy="119" r="1.6" fill="#0b64d6"/><text x="380" y="123" font-family="ui-monospace,SFMono-Regular,Menlo,monospace" font-size="12.5" fill="#94a0ad">PolyForm NC</text>
  <rect x="0" y="0" width="5" height="168" fill="url(#rail)"/>
  <rect x="0.5" y="0.5" width="1279" height="167" rx="0" fill="none" stroke="#e6eaef" stroke-width="1"/>
</svg>