<svg xmlns="http://www.w3.org/2000/svg" width="1240" height="460" viewBox="0 0 1240 460">
  <defs><marker id="arw" markerWidth="10" markerHeight="10" refX="8" refY="3" orient="auto">
    <path d="M0,0 L8,3 L0,6 Z" fill="#9aa7b4"/></marker></defs>
  <rect width="1240" height="460" fill="#0d1117"/><g opacity="0.5"><line x1="0" y1="0" x2="0" y2="460" stroke="#1b2430"/><line x1="40" y1="0" x2="40" y2="460" stroke="#1b2430"/><line x1="80" y1="0" x2="80" y2="460" stroke="#1b2430"/><line x1="120" y1="0" x2="120" y2="460" stroke="#1b2430"/><line x1="160" y1="0" x2="160" y2="460" stroke="#1b2430"/><line x1="200" y1="0" x2="200" y2="460" stroke="#1b2430"/><line x1="240" y1="0" x2="240" y2="460" stroke="#1b2430"/><line x1="280" y1="0" x2="280" y2="460" stroke="#1b2430"/><line x1="320" y1="0" x2="320" y2="460" stroke="#1b2430"/><line x1="360" y1="0" x2="360" y2="460" stroke="#1b2430"/><line x1="400" y1="0" x2="400" y2="460" stroke="#1b2430"/><line x1="440" y1="0" x2="440" y2="460" stroke="#1b2430"/><line x1="480" y1="0" x2="480" y2="460" stroke="#1b2430"/><line x1="520" y1="0" x2="520" y2="460" stroke="#1b2430"/><line x1="560" y1="0" x2="560" y2="460" stroke="#1b2430"/><line x1="600" y1="0" x2="600" y2="460" stroke="#1b2430"/><line x1="640" y1="0" x2="640" y2="460" stroke="#1b2430"/><line x1="680" y1="0" x2="680" y2="460" stroke="#1b2430"/><line x1="720" y1="0" x2="720" y2="460" stroke="#1b2430"/><line x1="760" y1="0" x2="760" y2="460" stroke="#1b2430"/><line x1="800" y1="0" x2="800" y2="460" stroke="#1b2430"/><line x1="840" y1="0" x2="840" y2="460" stroke="#1b2430"/><line x1="880" y1="0" x2="880" y2="460" stroke="#1b2430"/><line x1="920" y1="0" x2="920" y2="460" stroke="#1b2430"/><line x1="960" y1="0" x2="960" y2="460" stroke="#1b2430"/><line x1="1000" y1="0" x2="1000" y2="460" stroke="#1b2430"/><line x1="1040" y1="0" x2="1040" y2="460" stroke="#1b2430"/><line x1="1080" y1="0" x2="1080" y2="460" stroke="#1b2430"/><line x1="1120" y1="0" x2="1120" y2="460" stroke="#1b2430"/><line x1="1160" y1="0" x2="1160" y2="460" stroke="#1b2430"/><line x1="1200" y1="0" x2="1200" y2="460" stroke="#1b2430"/><line x1="0" y1="0" x2="1240" y2="0" stroke="#1b2430"/><line x1="0" y1="40" x2="1240" y2="40" stroke="#1b2430"/><line x1="0" y1="80" x2="1240" y2="80" stroke="#1b2430"/><line x1="0" y1="120" x2="1240" y2="120" stroke="#1b2430"/><line x1="0" y1="160" x2="1240" y2="160" stroke="#1b2430"/><line x1="0" y1="200" x2="1240" y2="200" stroke="#1b2430"/><line x1="0" y1="240" x2="1240" y2="240" stroke="#1b2430"/><line x1="0" y1="280" x2="1240" y2="280" stroke="#1b2430"/><line x1="0" y1="320" x2="1240" y2="320" stroke="#1b2430"/><line x1="0" y1="360" x2="1240" y2="360" stroke="#1b2430"/><line x1="0" y1="400" x2="1240" y2="400" stroke="#1b2430"/><line x1="0" y1="440" x2="1240" y2="440" stroke="#1b2430"/></g><text x="60" y="56" font-family="-apple-system,sans-serif" font-size="22" font-weight="700" fill="#e6edf3">Citadel architecture</text><g><rect x="60" y="110" width="170" height="70" rx="10" fill="#111a24" stroke="#38bdf8" stroke-opacity="0.7"/><text x="145" y="143" text-anchor="middle" font-family="-apple-system,Segoe UI,sans-serif" font-size="17" font-weight="600" fill="#e6edf3">Talon</text><text x="145" y="166" text-anchor="middle" font-family="ui-monospace,Menlo,monospace" font-size="12" fill="#9aa7b4">acquire</text></g><line x1="236" y1="145.0" x2="276" y2="145.0" stroke="#9aa7b4" stroke-width="2" marker-end="url(#arw)"/><g><rect x="282" y="110" width="170" height="70" rx="10" fill="#111a24" stroke="#38bdf8" stroke-opacity="0.7"/><text x="367" y="143" text-anchor="middle" font-family="-apple-system,Segoe UI,sans-serif" font-size="17" font-weight="600" fill="#e6edf3">Sluice</text><text x="367" y="166" text-anchor="middle" font-family="ui-monospace,Menlo,monospace" font-size="12" fill="#9aa7b4">route</text></g><line x1="458" y1="145.0" x2="498" y2="145.0" stroke="#9aa7b4" stroke-width="2" marker-end="url(#arw)"/><g><rect x="504" y="110" width="170" height="70" rx="10" fill="#111a24" stroke="#38bdf8" stroke-opacity="0.7"/><text x="589" y="143" text-anchor="middle" font-family="-apple-system,Segoe UI,sans-serif" font-size="17" font-weight="600" fill="#e6edf3">Babel</text><text x="589" y="166" text-anchor="middle" font-family="ui-monospace,Menlo,monospace" font-size="12" fill="#9aa7b4">parse</text></g><line x1="680" y1="145.0" x2="720" y2="145.0" stroke="#9aa7b4" stroke-width="2" marker-end="url(#arw)"/><g><rect x="726" y="110" width="170" height="70" rx="10" fill="#111a24" stroke="#38bdf8" stroke-opacity="0.7"/><text x="811" y="143" text-anchor="middle" font-family="-apple-system,Segoe UI,sans-serif" font-size="17" font-weight="600" fill="#e6edf3">Rosetta</text><text x="811" y="166" text-anchor="middle" font-family="ui-monospace,Menlo,monospace" font-size="12" fill="#9aa7b4">→ ECS</text></g><line x1="811.0" y1="180" x2="185.0" y2="250" stroke="#9aa7b4" stroke-width="2" marker-end="url(#arw)"/><g><rect x="60.0" y="250" width="250" height="64" rx="10" fill="#111a24" stroke="#38bdf8" stroke-opacity="0.7"/><text x="185" y="280" text-anchor="middle" font-family="-apple-system,Segoe UI,sans-serif" font-size="17" font-weight="600" fill="#e6edf3">store</text><text x="185" y="300" text-anchor="middle" font-family="ui-monospace,Menlo,monospace" font-size="12" fill="#9aa7b4">timeline · search</text></g><line x1="811.0" y1="180" x2="475.0" y2="250" stroke="#9aa7b4" stroke-width="2" marker-end="url(#arw)"/><g><rect x="350.0" y="250" width="250" height="64" rx="10" fill="#111a24" stroke="#38bdf8" stroke-opacity="0.7"/><text x="475" y="280" text-anchor="middle" font-family="-apple-system,Segoe UI,sans-serif" font-size="17" font-weight="600" fill="#e6edf3">Sigil</text><text x="475" y="300" text-anchor="middle" font-family="ui-monospace,Menlo,monospace" font-size="12" fill="#9aa7b4">detections</text></g><line x1="811.0" y1="180" x2="765.0" y2="250" stroke="#9aa7b4" stroke-width="2" marker-end="url(#arw)"/><g><rect x="640.0" y="250" width="250" height="64" rx="10" fill="#111a24" stroke="#38bdf8" stroke-opacity="0.7"/><text x="765" y="280" text-anchor="middle" font-family="-apple-system,Segoe UI,sans-serif" font-size="17" font-weight="600" fill="#e6edf3">Anvil</text><text x="765" y="300" text-anchor="middle" font-family="ui-monospace,Menlo,monospace" font-size="12" fill="#9aa7b4">analyzers</text></g><line x1="811.0" y1="180" x2="1055.0" y2="250" stroke="#9aa7b4" stroke-width="2" marker-end="url(#arw)"/><g><rect x="930.0" y="250" width="250" height="64" rx="10" fill="#111a24" stroke="#38bdf8" stroke-opacity="0.7"/><text x="1055" y="280" text-anchor="middle" font-family="-apple-system,Segoe UI,sans-serif" font-size="17" font-weight="600" fill="#e6edf3">Augur</text><text x="1055" y="300" text-anchor="middle" font-family="ui-monospace,Menlo,monospace" font-size="12" fill="#9aa7b4">intel</text></g><g><rect x="60" y="370" width="540" height="52" rx="10" fill="#111a24" stroke="#38bdf8" stroke-opacity="0.7"/><text x="330" y="394" text-anchor="middle" font-family="-apple-system,Segoe UI,sans-serif" font-size="17" font-weight="600" fill="#e6edf3">Pilot</text><text x="330" y="408" text-anchor="middle" font-family="ui-monospace,Menlo,monospace" font-size="12" fill="#9aa7b4">drives every tool</text></g><g><rect x="640" y="370" width="540" height="52" rx="10" fill="#111a24" stroke="#38bdf8" stroke-opacity="0.7"/><text x="910" y="394" text-anchor="middle" font-family="-apple-system,Segoe UI,sans-serif" font-size="17" font-weight="600" fill="#e6edf3">Scribe</text><text x="910" y="408" text-anchor="middle" font-family="ui-monospace,Menlo,monospace" font-size="12" fill="#9aa7b4">writes the case report</text></g></svg>